<svg width="500px" class="fcl-logo" height="250px" version="1.1" viewBox="0 0 500 250" xmlns="http://www.w3.org/2000/svg">
    <defs></defs>
    <g stroke-width="1.0795">
        <g transform="matrix(1.1735 0 0 1.1735 -29.476 -22.669)" aria-label="FUTURE CITIES LABORATORY GLOBAL">
            <path d="m198.48 36.871v-5.456h-20.636v31.328h6.116v-12.716h12.364v-5.456h-12.364v-7.7z"/>
            <path d="m226.38 52.007v-20.592h-6.072v20.372c0 3.608-2.156 5.764-5.456 5.764s-5.412-2.156-5.412-5.764v-20.372h-6.116v20.592c0 6.644 5.104 11 11.528 11s11.528-4.356 11.528-11z"/>
            <path d="m253.35 36.871v-5.456h-22.484v5.456h8.184v25.872h6.116v-25.872z"/>
            <path d="m280.89 52.007v-20.592h-6.072v20.372c0 3.608-2.156 5.764-5.456 5.764s-5.412-2.156-5.412-5.764v-20.372h-6.116v20.592c0 6.644 5.104 11 11.528 11s11.528-4.356 11.528-11z"/>
            <path d="m311.43 62.743-6.996-13.508c3.036-1.1 5.72-3.828 5.72-8.228 0-5.236-3.784-9.592-10.164-9.592h-12.276v31.328h6.116v-12.496h4.4l6.116 12.496zm-7.392-21.736c0 2.42-1.76 4.136-4.444 4.136h-5.764v-8.272h5.764c2.684 0 4.444 1.716 4.444 4.136z"/>
            <path d="m337.12 62.743v-5.456h-14.52v-7.612h12.364v-5.456h-12.364v-7.348h14.52v-5.456h-20.636v31.328z"/>
            <path d="m199.84 100.23h-6.204c-0.616 2.552-2.244 4.444-5.28 4.444-1.672 0-3.036-0.616-3.916-1.628-1.144-1.32-1.54-2.86-1.54-8.844 0-5.984 0.396-7.524 1.54-8.844 0.88-1.012 2.244-1.628 3.916-1.628 3.036 0 4.62 1.892 5.236 4.444h6.248c-1.144-6.556-5.632-9.9-11.484-9.9-3.608 0-6.248 1.188-8.404 3.3-3.124 3.124-3.168 6.644-3.168 12.628 0 5.984 0.044 9.504 3.168 12.628 2.156 2.112 4.796 3.3 8.404 3.3 5.808 0 10.34-3.344 11.484-9.9z"/>
            <path d="m211.24 109.86v-31.328h-6.116v31.328z"/>
            <path d="m238.7 83.989v-5.456h-22.484v5.456h8.184v25.872h6.116v-25.872z"/>
            <path d="m249.78 109.86v-31.328h-6.116v31.328z"/>
            <path d="m277.72 109.86v-5.456h-14.52v-7.612h12.364v-5.456h-12.364v-7.348h14.52v-5.456h-20.636v31.328z"/>
            <path d="m303.95 100.62c0-2.816-0.748-5.06-2.42-6.6-1.364-1.32-3.124-2.068-5.984-2.464l-3.74-0.572c-1.32-0.176-2.244-0.616-2.86-1.188-0.66-0.616-0.88-1.408-0.88-2.244 0-2.156 1.54-3.96 4.796-3.96 2.068 0 4.488 0.264 6.424 2.156l3.872-3.828c-2.684-2.596-5.808-3.652-10.12-3.652-6.776 0-10.912 3.916-10.912 9.504 0 2.64 0.748 4.708 2.244 6.16 1.408 1.364 3.3 2.2 6.072 2.596l3.74 0.572c1.584 0.22 2.2 0.484 2.816 1.056 0.66 0.66 0.968 1.54 0.968 2.596 0 2.508-1.936 3.916-5.588 3.916-2.86 0-5.544-0.66-7.524-2.64l-3.96 3.96c3.08 3.124 6.688 4.136 11.44 4.136 6.6 0 11.616-3.432 11.616-9.504z"/>
            <path d="m198.17 156.98v-5.456h-14.212v-25.872h-6.116v31.328z"/>
            <path d="m227.34 156.98-11.44-31.328h-4.796l-11.396 31.328h6.38l1.892-5.544h11.132l1.848 5.544zm-9.856-10.692h-7.788l3.96-11.396z"/>
            <path d="m253.92 147.96c0-4.18-2.42-6.16-4.312-7.04 1.584-0.748 3.872-2.992 3.872-6.468 0-5.368-3.564-8.8-9.68-8.8h-12.584v31.328h13.112c5.588 0 9.592-3.168 9.592-9.02zm-6.116-0.308c0 2.112-1.32 3.872-4.092 3.872h-6.38v-7.7h6.38c2.772 0 4.092 1.716 4.092 3.828zm-0.44-12.936c0 2.156-1.452 3.608-4.048 3.608h-5.984v-7.216h5.984c2.596 0 4.048 1.452 4.048 3.608z"/>
            <path d="m282.26 141.32c0-5.984-0.088-9.504-3.212-12.628-2.112-2.112-4.752-3.3-8.36-3.3s-6.292 1.188-8.404 3.3c-3.124 3.124-3.168 6.644-3.168 12.628s0.044 9.504 3.168 12.628c2.112 2.112 4.796 3.3 8.404 3.3s6.248-1.188 8.36-3.3c3.124-3.124 3.212-6.644 3.212-12.628zm-6.116 0c0 5.984-0.396 7.436-1.54 8.756-0.88 1.012-2.244 1.716-3.916 1.716s-3.036-0.704-3.96-1.716c-1.144-1.32-1.496-2.772-1.496-8.756s0.352-7.48 1.496-8.8c0.924-1.012 2.288-1.672 3.96-1.672s3.036 0.66 3.916 1.672c1.144 1.32 1.54 2.816 1.54 8.8z"/>
            <path d="m312.22 156.98-6.996-13.508c3.036-1.1 5.72-3.828 5.72-8.228 0-5.236-3.784-9.592-10.164-9.592h-12.276v31.328h6.116v-12.496h4.4l6.116 12.496zm-7.392-21.736c0 2.42-1.76 4.136-4.444 4.136h-5.764v-8.272h5.764c2.684 0 4.444 1.716 4.444 4.136z"/>
            <path d="m341.48 156.98-11.44-31.328h-4.796l-11.396 31.328h6.38l1.892-5.544h11.132l1.848 5.544zm-9.856-10.692h-7.788l3.96-11.396z"/>
            <path d="m362.42 131.11v-5.456h-22.484v5.456h8.184v25.872h6.116v-25.872z"/>
            <path d="m388.6 141.32c0-5.984-0.088-9.504-3.212-12.628-2.112-2.112-4.752-3.3-8.36-3.3s-6.292 1.188-8.404 3.3c-3.124 3.124-3.168 6.644-3.168 12.628s0.044 9.504 3.168 12.628c2.112 2.112 4.796 3.3 8.404 3.3s6.248-1.188 8.36-3.3c3.124-3.124 3.212-6.644 3.212-12.628zm-6.116 0c0 5.984-0.396 7.436-1.54 8.756-0.88 1.012-2.244 1.716-3.916 1.716s-3.036-0.704-3.96-1.716c-1.144-1.32-1.496-2.772-1.496-8.756s0.352-7.48 1.496-8.8c0.924-1.012 2.288-1.672 3.96-1.672s3.036 0.66 3.916 1.672c1.144 1.32 1.54 2.816 1.54 8.8z"/>
            <path d="m418.57 156.98-6.996-13.508c3.036-1.1 5.72-3.828 5.72-8.228 0-5.236-3.784-9.592-10.164-9.592h-12.276v31.328h6.116v-12.496h4.4l6.116 12.496zm-7.392-21.736c0 2.42-1.76 4.136-4.444 4.136h-5.764v-8.272h5.764c2.684 0 4.444 1.716 4.444 4.136z"/>
            <path d="m444.79 125.65h-6.644l-5.764 12.628-5.852-12.628h-6.644l9.416 18.48v12.848h6.072v-12.848z"/>
            <path d="m200.15 191.25v-4.576h-11.836v5.148h5.764v1.144c0 1.628-0.396 3.036-1.408 4.18-0.968 1.1-2.464 1.76-4.356 1.76-1.672 0-2.992-0.616-3.916-1.628-1.144-1.32-1.496-2.86-1.496-8.844s0.352-7.48 1.496-8.8c0.924-1.012 2.244-1.672 3.916-1.672 3.124 0 4.928 1.584 5.632 4.576h6.16c-0.836-5.28-4.488-10.032-11.792-10.032-3.564 0-6.204 1.188-8.36 3.3-3.124 3.124-3.168 6.644-3.168 12.628s0.044 9.504 3.168 12.628c2.156 2.112 4.796 3.3 8.36 3.3 3.344 0 6.248-0.836 8.844-3.564 2.288-2.376 2.992-5.016 2.992-9.548z"/>
            <path d="m226.73 204.1v-5.456h-14.212v-25.872h-6.116v31.328z"/>
            <path d="m252.25 188.43c0-5.984-0.088-9.504-3.212-12.628-2.112-2.112-4.752-3.3-8.36-3.3s-6.292 1.188-8.404 3.3c-3.124 3.124-3.168 6.644-3.168 12.628s0.044 9.504 3.168 12.628c2.112 2.112 4.796 3.3 8.404 3.3s6.248-1.188 8.36-3.3c3.124-3.124 3.212-6.644 3.212-12.628zm-6.116 0c0 5.984-0.396 7.436-1.54 8.756-0.88 1.012-2.244 1.716-3.916 1.716s-3.036-0.704-3.96-1.716c-1.144-1.32-1.496-2.772-1.496-8.756s0.352-7.48 1.496-8.8c0.924-1.012 2.288-1.672 3.96-1.672s3.036 0.66 3.916 1.672c1.144 1.32 1.54 2.816 1.54 8.8z"/>
            <path d="m281.2 195.08c0-4.18-2.42-6.16-4.312-7.04 1.584-0.748 3.872-2.992 3.872-6.468 0-5.368-3.564-8.8-9.68-8.8h-12.584v31.328h13.112c5.588 0 9.592-3.168 9.592-9.02zm-6.116-0.308c0 2.112-1.32 3.872-4.092 3.872h-6.38v-7.7h6.38c2.772 0 4.092 1.716 4.092 3.828zm-0.44-12.936c0 2.156-1.452 3.608-4.048 3.608h-5.984v-7.216h5.984c2.596 0 4.048 1.452 4.048 3.608z"/>
            <path d="m311.21 204.1-11.44-31.328h-4.796l-11.396 31.328h6.38l1.892-5.544h11.132l1.848 5.544zm-9.856-10.692h-7.788l3.96-11.396z"/>
            <path d="m335.41 204.1v-5.456h-14.212v-25.872h-6.116v31.328z"/>
        </g>
        <g transform="matrix(1.1735 0 0 1.1735 -29.476 -22.669)" aria-label="(FCL)">
            <path d="m31.508 55.457c0 1.9432 0.08636 3.8431 1.1227 5.5704 0.94999 1.6841 2.2886 2.9795 3.8 4.4477l3.8-3.8c-1.0364-1.0364-1.6841-1.5977-2.4182-2.85-0.43181-0.82044-0.64772-1.9863-0.64772-3.6272v-18.309c0-1.6409 0.21591-2.8068 0.64772-3.6272 0.73408-1.2523 1.3818-1.8136 2.4182-2.85l-3.8-3.8c-1.5113 1.4682-2.85 2.7636-3.8 4.4477-0.99317 1.6841-1.1227 3.6704-1.1227 5.5704z"/>
            <path d="m66.399 36.025v-5.3545h-20.252v30.745h6.0022v-12.479h12.134v-5.3545h-12.134v-7.5567z"/>
            <path d="m92.351 51.959h-6.0886c-0.60454 2.5045-2.2022 4.3613-5.1818 4.3613-1.6409 0-2.9795-0.60454-3.8431-1.5977-1.1227-1.2954-1.5113-2.8068-1.5113-8.6794s0.38863-7.384 1.5113-8.6794c0.86363-0.99317 2.2022-1.5977 3.8431-1.5977 2.9795 0 4.534 1.8568 5.1386 4.3613h6.1317c-1.1227-6.434-5.5272-9.7158-11.27-9.7158-3.5409 0-6.1317 1.1659-8.2476 3.2386-3.0659 3.0659-3.1091 6.5204-3.1091 12.393s0.04318 9.3272 3.1091 12.393c2.1159 2.0727 4.7068 3.2386 8.2476 3.2386 5.6999 0 10.148-3.2818 11.27-9.7158z"/>
            <path d="m117.48 61.416v-5.3545h-13.948v-25.391h-6.0022v30.745z"/>
            <path d="m129.83 55.457v-18.827c0-1.9-0.12955-3.8863-1.1227-5.5704-0.94999-1.6841-2.2886-2.9795-3.8-4.4477l-3.8 3.8c1.0364 1.0364 1.6841 1.5977 2.4182 2.85 0.43181 0.82044 0.64772 1.9863 0.64772 3.6272v18.309c0 1.6409-0.21591 2.8068-0.64772 3.6272-0.73408 1.2523-1.3818 1.8136-2.4182 2.85l3.8 3.8c1.5113-1.4682 2.85-2.7636 3.8-4.4477 1.0364-1.7273 1.1227-3.6272 1.1227-5.5704z"/>
        </g>
    </g>
</svg>
